<svg xmlns="http://www.w3.org/2000/svg" width="720" height="720" viewBox="0 0 720 720">
  <rect width="720" height="720" fill="#655fee"/>
  <path fill="#ffffff" d="M252 206.85A36.15 36.15 0 0 0 215.85 243 36.15 36.15 0 0 0 252 279.15h216A36.15 36.15 0 0 0 504.15 243 36.15 36.15 0 0 0 468 206.85Zm-31 117A36.15 36.15 0 0 0 184.85 360 36.15 36.15 0 0 0 221 396.15h139A36.15 36.15 0 0 0 396.15 360 36.15 36.15 0 0 0 360 323.85Zm31 117A36.15 36.15 0 0 0 215.85 477 36.15 36.15 0 0 0 252 513.15h216A36.15 36.15 0 0 0 504.15 477 36.15 36.15 0 0 0 468 440.85Z"/>
</svg>
